<?xml version="1.0" standalone="no"?>
<!DOCTYPE svg PUBLIC "-//W3C//DTD SVG 20010904//EN"
 "http://www.w3.org/TR/2001/REC-SVG-20010904/DTD/svg10.dtd">
<svg version="1.0" xmlns="http://www.w3.org/2000/svg"
 width="512.000000pt" height="512.000000pt" viewBox="0 0 512.000000 512.000000"
 preserveAspectRatio="xMidYMid meet">
<metadata>
Ludovic Frank
</metadata>
<g transform="translate(0.000000,512.000000) scale(0.100000,-0.100000)"
fill="#1E2E50" stroke="none">
<path d="M1200 2560 l0 -1800 1360 0 1360 0 0 1800 0 1800 -1360 0 -1360 0 0
-1800z m2100 700 c220 -45 380 -140 510 -305 110 -140 160 -290 160 -480 0
-190 -50 -340 -160 -480 -130 -165 -290 -260 -510 -305 -85 -17 -245 -17
-330 0 -220 45 -380 140 -510 305 -110 140 -160 290 -160 480 0 190 50 340
160 480 130 165 290 260 510 305 85 17 245 17 330 0z"/>
</g>
</svg>
